<svg width="36" height="36" viewBox="0 0 36 36" fill="none" xmlns="http://www.w3.org/2000/svg">
<path fill-rule="evenodd" clip-rule="evenodd" d="M5.57843 0.200012C12.9885 0.200012 20.3984 0.200012 27.8082 0.200012C27.809 0.220666 27.809 0.241319 27.8077 0.261973C27.807 1.98655 27.8052 3.71113 27.8062 5.43571C27.8067 6.20054 28.3486 6.66912 29.2475 6.67062C31.2455 6.67363 33.2433 6.66976 35.2413 6.66847C35.2429 14.7109 35.2333 22.7533 35.2608 30.7958C35.2638 31.7043 34.5075 32.4666 33.3252 32.4285C32.6592 32.407 31.992 32.4244 31.3251 32.4242C23.005 32.4238 14.6855 32.4231 6.36562 32.4233C5.21844 32.4235 4.50779 31.8448 4.50754 30.8676C4.50451 21.7878 4.50729 12.7082 4.5083 3.6283C4.51083 2.96911 4.51537 2.30991 4.51537 1.65072C4.51537 1.26109 4.67024 0.928054 5.00118 0.658051C5.19089 0.502932 5.38592 0.352548 5.57843 0.200012ZM32.1411 25.6631C32.1643 25.6438 32.1878 25.6242 32.211 25.6048C32.211 25.0089 32.211 24.4134 32.211 23.8204C23.9579 23.8204 15.774 23.8204 7.54993 23.8204C7.54993 24.4299 7.54993 25.0173 7.54993 25.6046C7.57317 25.6242 7.59666 25.6435 7.6199 25.6629C7.81013 25.6657 8.00062 25.6709 8.19084 25.6709C15.9839 25.6713 23.7768 25.6713 31.5696 25.6709C31.7606 25.6711 31.9506 25.6657 32.1411 25.6631ZM7.64545 13.1868C7.79349 13.1954 7.9001 13.2073 8.00645 13.2073C11.5043 13.2083 15.0022 13.2036 18.4999 13.215C18.8455 13.2161 18.899 13.1068 18.8985 12.851C18.8907 9.64065 18.8872 6.42987 18.9026 3.21931C18.9044 2.88949 18.7616 2.8469 18.4289 2.84754C14.9856 2.85636 11.542 2.8527 8.09866 2.85378C7.95391 2.85378 7.80915 2.86497 7.64545 2.87164C7.64545 6.32036 7.64545 9.7351 7.64545 13.1868ZM19.8391 21.4978C23.244 21.4978 26.6489 21.4978 30.0541 21.4978C30.667 21.4978 31.2801 21.4907 31.8925 21.501C32.1386 21.5053 32.2338 21.4354 32.2252 21.2211C32.2103 20.8388 32.2214 20.4556 32.2212 20.0729C32.2207 19.6209 32.2207 19.6204 31.6899 19.6204C23.8177 19.6204 15.9453 19.6204 8.07289 19.6204C8.00468 19.6204 7.93596 19.6256 7.86877 19.6196C7.62271 19.597 7.52822 19.6837 7.53605 19.8975C7.55046 20.2912 7.56561 20.6877 7.53227 21.08C7.50372 21.4169 7.63761 21.5062 8.03045 21.5051C11.9667 21.493 15.9029 21.4978 19.8391 21.4978ZM19.833 17.3234C22.5829 17.3234 25.3325 17.3234 28.0821 17.3234C29.3208 17.3234 30.5597 17.3133 31.798 17.3298C32.1459 17.3344 32.2495 17.2365 32.2273 16.9529C32.2017 16.6298 32.2217 16.304 32.2215 15.9794C32.2212 15.511 32.2209 15.5106 31.6692 15.5106C23.8147 15.5106 15.9605 15.5106 8.10627 15.5106C8.02467 15.5106 7.94206 15.5173 7.86147 15.5095C7.60632 15.4859 7.52927 15.5878 7.5366 15.7937C7.54973 16.1644 7.5659 16.5373 7.53255 16.906C7.50198 17.2434 7.63941 17.3318 8.03124 17.3307C11.9652 17.3187 15.8991 17.3234 19.833 17.3234ZM7.56556 29.8414C7.74897 29.8414 7.90787 29.8414 8.06678 29.8414C10.0411 29.8414 12.0151 29.8414 13.9897 29.8414C15.5009 29.8414 17.0124 29.8367 18.5236 29.8459C18.8022 29.8477 18.9134 29.7842 18.9 29.5342C18.8785 29.1407 18.8707 28.7446 18.9018 28.3522C18.9263 28.0443 18.8113 27.9619 18.4486 27.963C14.963 27.9749 11.4775 27.9699 7.99175 27.971C7.84876 27.971 7.70577 27.9841 7.56531 27.9908C7.56556 28.622 7.56556 29.2087 7.56556 29.8414ZM21.7785 13.1731C25.2767 13.1731 28.7356 13.1731 32.1843 13.1731C32.1843 12.5459 32.1843 11.9502 32.1843 11.3594C28.6985 11.3594 25.2481 11.3594 21.7785 11.3594C21.7785 11.9702 21.7785 12.5578 21.7785 13.1731Z" fill="white"/>
<path fill-rule="evenodd" clip-rule="evenodd" d="M31.3251 32.4242C31.3274 33.0621 31.3469 33.7002 31.3274 34.3375C31.3014 35.1916 30.499 35.8346 29.489 35.8349C20.432 35.8353 11.3753 35.8351 2.31854 35.8344C1.29085 35.8342 0.543067 35.175 0.58071 34.3084C0.584248 34.2273 0.58071 34.146 0.58071 34.0647C0.58071 24.496 0.582984 14.9276 0.574646 5.35872C0.574141 4.81484 0.675445 4.34734 1.18702 3.96245C1.57025 3.67437 2.0265 3.64963 2.46759 3.62403C3.14464 3.58466 3.82775 3.62296 4.50833 3.62812C4.50732 12.708 4.50454 21.7876 4.50757 30.8675C4.50782 31.8446 5.21847 32.4234 6.36565 32.4231C14.6855 32.4234 23.0051 32.4238 31.3251 32.4242Z" fill="#4CDAC3"/>
<path fill-rule="evenodd" clip-rule="evenodd" d="M7.64545 13.1868C7.64545 9.7351 7.64545 6.32015 7.64545 2.87164C7.8089 2.86476 7.9539 2.85379 8.09866 2.85379C11.542 2.85292 14.9856 2.85637 18.4289 2.84755C18.7616 2.84669 18.9044 2.8895 18.9026 3.21931C18.8872 6.42987 18.8907 9.64065 18.8985 12.851C18.899 13.1068 18.8455 13.2161 18.4999 13.215C15.0022 13.2036 11.5046 13.2084 8.00645 13.2073C7.9001 13.2073 7.79374 13.1954 7.64545 13.1868Z" fill="#83DAFE"/>
<path fill-rule="evenodd" clip-rule="evenodd" d="M19.8391 21.4978C15.9029 21.4978 11.9667 21.493 8.03045 21.5051C7.63761 21.5064 7.50372 21.4171 7.53227 21.08C7.56561 20.6878 7.55046 20.2912 7.53605 19.8975C7.52822 19.6837 7.62271 19.597 7.86877 19.6196C7.93597 19.6256 8.00493 19.6204 8.07289 19.6204C15.9453 19.6204 23.8177 19.6204 31.6899 19.6204C32.2207 19.6204 32.2207 19.6209 32.2212 20.0729C32.2214 20.4556 32.2103 20.8388 32.2252 21.2211C32.2335 21.4354 32.1383 21.5051 31.8925 21.501C31.2799 21.4907 30.6667 21.4978 30.0541 21.4978C26.6489 21.4978 23.244 21.4978 19.8391 21.4978Z" fill="#CCD5DF"/>
<path fill-rule="evenodd" clip-rule="evenodd" d="M7.55023 25.6046C7.55023 25.0173 7.55023 24.4299 7.55023 23.8204C15.7741 23.8204 23.9582 23.8204 32.2113 23.8204C32.2113 24.4134 32.2113 25.0089 32.2116 25.6048C32.1881 25.6242 32.1646 25.6435 32.1414 25.6631C31.9509 25.6659 31.7607 25.6711 31.5702 25.6711C23.7773 25.6715 15.9845 25.6715 8.19141 25.6711C8.00118 25.6711 7.81069 25.6659 7.62047 25.6631C7.59697 25.6438 7.57347 25.6242 7.55023 25.6046Z" fill="#ABB2B9"/>
<path fill-rule="evenodd" clip-rule="evenodd" d="M19.833 17.3234C15.8994 17.3234 11.9652 17.3189 8.03124 17.3307C7.63966 17.3318 7.50224 17.2436 7.53255 16.906C7.56564 16.5372 7.54973 16.1644 7.53659 15.7937C7.52927 15.5878 7.60632 15.4856 7.86147 15.5095C7.94206 15.5173 8.02467 15.5106 8.10627 15.5106C15.9608 15.5106 23.815 15.5106 31.6692 15.5106C32.221 15.5106 32.2212 15.511 32.2215 15.9794C32.2217 16.3043 32.202 16.6298 32.2273 16.9529C32.2495 17.2365 32.1459 17.3344 31.7981 17.3298C30.5597 17.3133 29.3208 17.3234 28.0821 17.3234C25.3323 17.3234 22.5827 17.3234 19.833 17.3234Z" fill="#CCD5DF"/>
<path fill-rule="evenodd" clip-rule="evenodd" d="M27.8078 0.261963C28.3211 0.690526 28.8385 1.11565 29.3473 1.5483C30.6241 2.63412 31.9029 3.71822 33.1688 4.81329C33.8721 5.4215 34.5515 6.0495 35.2414 6.66867C33.2436 6.66975 31.2458 6.67362 29.2475 6.67083C28.3487 6.66932 27.8068 6.20074 27.8063 5.43591C27.8053 3.71112 27.807 1.98654 27.8078 0.261963Z" fill="#CDD5DF"/>
<path fill-rule="evenodd" clip-rule="evenodd" d="M7.56561 29.8414C7.56561 29.2089 7.56561 28.622 7.56561 27.9905C7.70607 27.9839 7.84906 27.9707 7.99205 27.9707C11.4778 27.9697 14.9633 27.9746 18.4489 27.9628C18.8116 27.9615 18.9266 28.0441 18.9021 28.352C18.871 28.7444 18.8788 29.1405 18.9003 29.534C18.9137 29.784 18.8023 29.8474 18.5239 29.8457C17.0127 29.8365 15.5012 29.8412 13.99 29.8412C12.0157 29.8412 10.0414 29.8412 8.06708 29.8412C7.90793 29.8414 7.74902 29.8414 7.56561 29.8414Z" fill="#ABB2B9"/>
<path fill-rule="evenodd" clip-rule="evenodd" d="M21.7785 13.1731C21.7785 12.5578 21.7785 11.9702 21.7785 11.3594C25.2481 11.3594 28.6988 11.3594 32.1843 11.3594C32.1843 11.9502 32.1843 12.5459 32.1843 13.1731C28.7356 13.1731 25.2767 13.1731 21.7785 13.1731Z" fill="#FED05C"/>
<path fill-rule="evenodd" clip-rule="evenodd" d="M7.55023 25.6046C7.63383 25.6769 7.71835 25.7491 7.80286 25.8198C7.71835 25.7483 7.63383 25.6769 7.55023 25.6046Z" fill="#B4BAC0"/>
<path fill-rule="evenodd" clip-rule="evenodd" d="M32.1412 25.82C32.2257 25.7478 32.3102 25.6763 32.3938 25.6049C32.3093 25.6763 32.2248 25.7486 32.1412 25.82Z" fill="#B4BAC0"/>
</svg>
