<svg width="50" height="51" viewBox="0 0 50 51" fill="none" xmlns="http://www.w3.org/2000/svg">
<circle cx="25" cy="25.3" r="25" fill="#FFAE00"/>
<path d="M17.004 25.165C17.004 28.315 17.784 30.7 20.784 30.7C23.769 30.7 24.549 28.315 24.549 25.165C24.549 22.06 23.769 19.69 20.784 19.69C17.784 19.69 17.004 22.06 17.004 25.165ZM23.199 25.165C23.199 27.505 22.914 29.455 20.784 29.455C18.639 29.455 18.354 27.505 18.354 25.165C18.354 22.915 18.639 20.935 20.784 20.935C22.914 20.935 23.199 22.915 23.199 25.165ZM26.3929 22.585H27.7279C27.8629 21.535 28.6279 20.815 29.9029 20.815C31.2079 20.815 31.8979 21.535 31.8979 22.57C31.8979 23.83 30.9229 24.385 29.1079 24.4H28.7479V25.54H29.0929C31.0429 25.54 32.1079 26.125 32.1079 27.655C32.1079 28.765 31.4179 29.62 29.9629 29.62C28.5229 29.62 27.6829 28.735 27.5479 27.58H26.2279C26.3929 29.68 27.9229 30.775 29.9779 30.775C32.2429 30.775 33.4129 29.455 33.4129 27.775C33.4129 26.215 32.5579 25.285 31.2979 24.985V24.91C32.4379 24.655 33.2179 23.68 33.2179 22.435C33.2179 20.875 32.0629 19.645 29.9479 19.645C27.9379 19.645 26.5279 20.725 26.3929 22.585Z" fill="white"/>
</svg>
