<svg width="64" height="49" viewBox="0 0 64 49" fill="none" xmlns="http://www.w3.org/2000/svg">
<path fill-rule="evenodd" clip-rule="evenodd" d="M-6.10352e-05 14.8352C6.25677 14.8393 12.5136 14.8438 18.7704 14.8466C18.8519 14.8466 18.9335 14.8291 19.113 14.8083C19.113 14.4051 19.1516 13.9961 19.1068 13.5961C18.7772 10.6536 19.444 7.97426 21.0016 5.44705C21.8989 3.99103 22.5742 2.39668 23.3219 0.851087C23.6096 0.256438 24.0226 0.000499239 24.6879 0.000996579C35.8137 0.0116122 46.9395 0.0121102 58.0657 1.2655e-06C58.7549 -0.000662488 59.1775 0.256936 59.481 0.873646C60.8236 3.60239 62.1935 6.31754 63.5548 9.03683C63.5905 9.10799 63.6423 9.17086 63.6867 9.23754C63.6867 22.1738 63.6867 35.1101 63.6867 48.0466C63.3968 48.6394 62.9171 48.8262 62.269 48.8257C48.3637 48.8148 34.4582 48.8177 20.5527 48.8162C19.4223 48.8161 19.1141 48.4908 19.1139 47.3038C19.1125 38.8694 19.1062 30.4351 19.1271 22.0007C19.1287 21.3803 18.9864 21.201 18.3443 21.2055C13.9097 21.236 9.47467 21.2216 5.0401 21.2216C4.79661 21.2216 4.55311 21.2216 4.27411 21.2216C4.27411 20.5005 4.27411 19.846 4.27411 19.1105C9.1985 19.1105 14.1176 19.1105 19.0746 19.1105C19.0746 18.3774 19.0746 17.7242 19.0746 16.9739C18.8157 16.9739 18.5772 16.9739 18.3387 16.9739C12.474 16.9739 6.60925 16.9743 0.744537 16.9729C0.496394 16.9728 0.24825 16.9577 0.000107118 16.9494C-6.10352e-05 16.2449 -6.10352e-05 15.5401 -6.10352e-05 14.8352ZM61.5185 46.6686C61.5185 34.6161 61.5185 22.6277 61.5185 10.6497C56.5666 10.6497 51.664 10.6497 46.7004 10.6497C46.7004 10.933 46.7004 11.1783 46.7004 11.4238C46.7004 15.5905 46.7018 19.7573 46.6996 23.9238C46.6989 25.1664 46.3926 25.4757 45.1602 25.4772C42.6517 25.4805 40.1435 25.4804 37.6352 25.4774C36.4128 25.4759 36.0819 25.144 36.0815 23.9291C36.0805 19.7417 36.081 15.5541 36.081 11.3667C36.081 11.1274 36.081 10.888 36.081 10.6513C31.0895 10.6513 26.1875 10.6513 21.2903 10.6513C21.2903 12.0674 21.2903 13.4414 21.2903 14.8659C23.4071 14.8659 25.4722 14.8659 27.5635 14.8659C27.5635 15.5873 27.5635 16.2568 27.5635 17.0015C25.442 17.0015 23.3617 17.0015 21.2792 17.0015C21.2792 17.7312 21.2792 18.3844 21.2792 19.1131C23.4002 19.1131 25.4814 19.1131 27.5702 19.1131C27.5702 19.8439 27.5702 20.4984 27.5702 21.2306C25.4547 21.2306 23.3728 21.2306 21.2832 21.2306C21.2832 29.7542 21.2832 38.1995 21.2832 46.6686C34.7126 46.6686 48.0979 46.6686 61.5185 46.6686ZM36.9946 2.21902C36.866 2.17191 36.828 2.14603 36.7904 2.14587C32.9989 2.14072 29.2071 2.13094 25.4156 2.15267C25.225 2.15366 24.9571 2.38638 24.8579 2.57929C23.9307 4.38247 23.0315 6.20026 22.1275 8.01522C22.0593 8.1524 22.0152 8.30152 21.952 8.46573C26.7303 8.46573 31.4503 8.46573 36.2143 8.46573C36.4754 6.37475 36.7343 4.30335 36.9946 2.21902ZM46.576 8.45573C51.3653 8.45573 56.0797 8.45573 60.8581 8.45573C60.752 8.22019 60.6758 8.03442 60.5864 7.85528C59.7269 6.13287 58.8509 4.41876 58.0146 2.68524C57.8166 2.27454 57.5935 2.11945 57.128 2.1221C53.5626 2.143 49.9972 2.13355 46.4318 2.13355C46.2295 2.13355 46.0273 2.13355 45.7844 2.13355C46.053 4.27727 46.3121 6.34668 46.576 8.45573ZM44.5185 23.3094C44.5185 19.0626 44.5185 14.8543 44.5185 10.6646C42.3852 10.6646 40.3065 10.6646 38.255 10.6646C38.255 14.913 38.255 19.1067 38.255 23.3094C40.3722 23.3094 42.4355 23.3094 44.5185 23.3094ZM44.434 8.45968C44.1676 6.32923 43.909 4.26115 43.6486 2.17847C42.132 2.17847 40.6567 2.17847 39.1442 2.17847C38.8816 4.28603 38.624 6.35411 38.3618 8.45968C40.3914 8.45968 42.3702 8.45968 44.434 8.45968Z" fill="black"/>
<path fill-rule="evenodd" clip-rule="evenodd" d="M-6.10352e-05 32.8716C2.38301 32.8795 4.76608 32.8915 7.14932 32.8946C10.1755 32.8986 13.2018 32.8956 16.228 32.8956C16.4519 32.8956 16.676 32.8956 16.9425 32.8956C16.9425 33.6057 16.9425 34.2591 16.9425 34.9607C16.7866 34.98 16.631 35.0161 16.4753 35.0163C11.0863 35.0191 5.69712 35.0186 0.307962 35.0168C0.205288 35.0168 0.102614 34.9969 -6.07188e-05 34.9861C-6.10352e-05 34.2813 -6.10352e-05 33.5765 -6.10352e-05 32.8716Z" fill="black"/>
<path fill-rule="evenodd" clip-rule="evenodd" d="M16.9499 37.1848C16.9499 37.8795 16.9499 38.5314 16.9499 39.227C12.7275 39.227 8.53561 39.227 4.29047 39.227C4.29047 38.5614 4.29047 37.8947 4.29047 37.1848C8.48452 37.1848 12.6774 37.1848 16.9499 37.1848Z" fill="black"/>
<path fill-rule="evenodd" clip-rule="evenodd" d="M44.5185 23.3094C42.4355 23.3094 40.3722 23.3094 38.255 23.3094C38.255 19.1066 38.255 14.9128 38.255 10.6646C40.3065 10.6646 42.385 10.6646 44.5185 10.6646C44.5185 14.8545 44.5185 19.0628 44.5185 23.3094Z" fill="#E175AB"/>
<path fill-rule="evenodd" clip-rule="evenodd" d="M44.434 8.45968C42.3704 8.45968 40.3914 8.45968 38.3618 8.45968C38.624 6.35411 38.8816 4.28603 39.1442 2.17847C40.6568 2.17847 42.1322 2.17847 43.6486 2.17847C43.909 4.26115 44.1674 6.32923 44.434 8.45968Z" fill="#E175AB"/>
<path fill-rule="evenodd" clip-rule="evenodd" d="M29.1419 44.5714C27.7799 44.5714 26.4178 44.5827 25.0561 44.5678C23.9132 44.5552 23.3787 44.0728 23.3691 43.0076C23.3503 40.8774 23.3512 38.7468 23.3684 36.6166C23.3771 35.5484 23.8872 35.0342 25.032 35.022C27.784 34.9926 30.5365 34.9932 33.2884 35.0207C34.4645 35.0327 34.9831 35.5657 34.9897 36.6734C35.0024 38.7769 35.0049 40.8808 34.9885 42.9843C34.9803 44.0463 34.4363 44.5537 33.3125 44.5671C31.9226 44.5838 30.5322 44.5714 29.1419 44.5714ZM24.8875 42.7938C27.7924 42.7938 30.6181 42.7938 33.4919 42.7938C33.4919 40.7723 33.4919 38.8271 33.4919 36.8018C30.6208 36.8018 27.79 36.8018 24.8875 36.8018C24.8875 38.7941 24.8875 40.738 24.8875 42.7938Z" fill="black"/>
<path fill-rule="evenodd" clip-rule="evenodd" d="M50.99 44.5257C50.99 43.8517 50.99 43.1977 50.99 42.498C53.7924 42.498 56.5886 42.498 59.4169 42.498C59.4169 43.1726 59.4169 43.8255 59.4169 44.5257C56.6145 44.5257 53.8193 44.5257 50.99 44.5257Z" fill="black"/>
<path fill-rule="evenodd" clip-rule="evenodd" d="M55.2559 38.2402C56.6508 38.2402 58.01 38.2402 59.4089 38.2402C59.4089 38.9175 59.4089 39.5715 59.4089 40.2806C58.0561 40.2806 56.6824 40.2806 55.2559 40.2806C55.2559 39.6394 55.2559 38.9709 55.2559 38.2402Z" fill="black"/>
<path fill-rule="evenodd" clip-rule="evenodd" d="M51.0074 38.2432C51.6996 38.2432 52.3511 38.2432 53.0421 38.2432C53.0421 38.9372 53.0421 39.6041 53.0421 40.3031C52.3609 40.3031 51.7098 40.3031 51.0074 40.3031C51.0074 39.6332 51.0074 38.9679 51.0074 38.2432Z" fill="black"/>
<path fill-rule="evenodd" clip-rule="evenodd" d="M25.3235 42.49C25.3235 40.6426 25.3235 38.8956 25.3235 37.1052C27.9316 37.1052 30.4755 37.1052 33.056 37.1052C33.056 38.9253 33.056 40.6737 33.056 42.49C30.4734 42.49 27.934 42.49 25.3235 42.49Z" fill="#E175AB"/>
</svg>
