<svg width="37" height="31" viewBox="0 0 37 31" fill="none" xmlns="http://www.w3.org/2000/svg">
<path fill-rule="evenodd" clip-rule="evenodd" d="M36.8128 7.96497C36.8208 8.14249 36.8354 8.32001 36.8354 8.49752C36.8367 15.2613 36.8366 22.0251 36.8363 28.7889C36.8363 29.7782 36.4657 30.1002 35.3265 30.1002C24.1542 30.1004 12.9816 30.0918 1.80911 30.1152C0.817042 30.1173 0.329445 29.7102 0.333398 28.8373C0.365023 22.0576 0.350579 15.2775 0.351948 8.49752C0.351948 8.32001 0.366696 8.14249 0.37445 7.96497C0.442564 7.9638 0.510832 7.96251 0.578946 7.96134C5.20617 7.96031 9.83356 7.9594 14.4606 7.9585C14.4606 9.77511 14.4606 11.5918 14.4606 13.5148C15.1511 13.0407 15.7326 12.6413 16.3557 12.2135C16.7213 12.6419 17.0674 13.0479 17.4487 13.4947C17.8325 13.0811 18.1893 12.6964 18.5922 12.2619C18.9877 12.684 19.3323 13.0521 19.728 13.4744C20.1268 13.0236 20.4728 12.6326 20.8426 12.2148C21.4558 12.6373 22.0369 13.0375 22.7265 13.5126C22.7265 11.5913 22.7265 9.77498 22.7265 7.95863C27.3537 7.95953 31.981 7.96031 36.6084 7.96134C36.6765 7.96251 36.7446 7.96381 36.8128 7.96497ZM4.7765 26.3882C5.00274 26.3987 5.13304 26.4105 5.26349 26.4098C6.54763 26.4045 6.40152 26.523 6.40562 25.4697C6.40942 24.4406 6.40638 23.4115 6.40638 22.3175C6.88729 22.3175 7.30632 22.3175 7.82797 22.3175C7.05408 21.2903 6.34693 20.352 5.58034 19.3348C4.81907 20.3564 4.11223 21.3048 3.33606 22.3465C3.90454 22.3465 4.31399 22.3465 4.77665 22.3465C4.7765 23.7084 4.7765 25.026 4.7765 26.3882ZM12.8737 22.3381C12.0814 21.2836 11.3755 20.3444 10.6139 19.3311C9.85889 20.3419 9.16117 21.2759 8.39868 22.2968C8.93219 22.3211 9.33602 22.3397 9.81297 22.3617C9.81297 23.7137 9.81297 25.0442 9.81297 26.3886C10.036 26.3981 10.1849 26.4101 10.3337 26.4099C11.5566 26.4087 11.4281 26.5036 11.4304 25.4741C11.4327 24.444 11.4308 23.414 11.4308 22.338C11.9032 22.3381 12.3116 22.3381 12.8737 22.3381ZM3.90662 27.8056C6.73763 27.8056 9.51193 27.8056 12.2841 27.8056C12.2841 27.5155 12.2841 27.2644 12.2841 27.0082C9.47255 27.0082 6.69962 27.0082 3.90662 27.0082C3.90662 27.2875 3.90662 27.5261 3.90662 27.8056Z" fill="#E9B44E"/>
<path fill-rule="evenodd" clip-rule="evenodd" d="M36.8128 7.96494C36.7447 7.96378 36.6766 7.96248 36.6083 7.96132C36.4497 7.92908 36.291 7.86887 36.1323 7.86874C31.6595 7.86511 27.1868 7.86757 22.714 7.86913C22.6717 7.71466 22.6161 7.56187 22.589 7.40559C22.3725 6.16309 22.1519 4.92111 21.9523 3.67681C21.8082 2.77795 21.694 1.87548 21.5664 0.97468C25.3646 0.973386 29.1632 0.971313 32.9615 0.971313C33.8547 0.971313 34.1113 1.14534 34.3978 1.86046C35.1942 3.84889 36.0026 5.83395 36.8038 7.82096C36.8215 7.86459 36.8104 7.91677 36.8128 7.96494Z" fill="#F5C763"/>
<path fill-rule="evenodd" clip-rule="evenodd" d="M0.57913 7.96134C0.511015 7.9625 0.442748 7.9638 0.374634 7.96496C0.842009 6.7349 1.30528 5.50367 1.77828 4.27516C2.0889 3.4685 2.41092 2.66507 2.7331 1.86177C3.0089 1.17397 3.344 0.970947 4.19133 0.970947C8.00134 0.971724 11.8113 0.973408 15.6212 0.974702C15.5867 1.146 15.5462 1.31679 15.5186 1.489C15.3588 2.48211 15.2058 3.47588 15.0431 4.46873C14.8573 5.60272 14.6636 6.7358 14.4734 7.86915C10.0007 7.86772 5.52793 7.86526 1.05517 7.86889C0.896441 7.86902 0.737709 7.9291 0.57913 7.96134Z" fill="#F5C763"/>
<path fill-rule="evenodd" clip-rule="evenodd" d="M14.4734 7.86931C14.6636 6.73584 14.8571 5.60275 15.0431 4.46876C15.2058 3.47603 15.3587 2.48214 15.5185 1.48903C15.5463 1.31682 15.5866 1.14603 15.6211 0.974731C17.6029 0.974731 19.5846 0.974731 21.5664 0.974731C21.694 1.87566 21.8082 2.77801 21.9523 3.67699C22.1519 4.9213 22.3727 6.1634 22.5891 7.40577C22.6163 7.56218 22.6718 7.71484 22.714 7.86931L22.6833 7.85752C19.9569 7.85752 17.2305 7.85752 14.5041 7.85752L14.4734 7.86931Z" fill="#EDEEED"/>
<path fill-rule="evenodd" clip-rule="evenodd" d="M22.7266 7.95875C22.7266 9.7751 22.7266 11.5915 22.7266 13.5127C22.0371 13.0375 21.456 12.6373 20.8426 12.2149C20.4729 12.6327 20.1268 13.0238 19.728 13.4745C19.3324 13.0522 18.9877 12.6841 18.5923 12.262C18.1894 12.6967 17.8324 13.0813 17.4488 13.4948C17.0674 13.048 16.7214 12.6421 16.3557 12.2136C15.7327 12.6414 15.1511 13.0409 14.4607 13.5149C14.4607 11.592 14.4607 9.77523 14.4608 7.95862C14.4608 7.95862 14.503 7.96716 14.5028 7.96716C17.23 7.96716 19.9573 7.96716 22.6846 7.96716L22.7266 7.95875Z" fill="#DAD7DC"/>
<path fill-rule="evenodd" clip-rule="evenodd" d="M4.77653 26.3882C4.77653 25.0259 4.77653 23.7083 4.77653 22.3464C4.31387 22.3464 3.90442 22.3464 3.33594 22.3464C4.11211 21.3048 4.81895 20.3563 5.58022 19.3347C6.34681 20.3519 7.05396 21.2904 7.82785 22.3174C7.3062 22.3174 6.88717 22.3174 6.40626 22.3174C6.40626 23.4114 6.40946 24.4404 6.4055 25.4696C6.4014 26.523 6.54751 26.4045 5.26337 26.4098C5.13307 26.4104 5.00262 26.3986 4.77653 26.3882Z" fill="#585B6C"/>
<path fill-rule="evenodd" clip-rule="evenodd" d="M12.8737 22.3381C12.3115 22.3381 11.9031 22.3381 11.4308 22.3381C11.4308 23.4141 11.4327 24.4441 11.4304 25.4742C11.4281 26.5036 11.5567 26.4088 10.3337 26.41C10.1849 26.4103 10.036 26.3982 9.81297 26.3888C9.81297 25.0444 9.81297 23.714 9.81297 22.3618C9.33586 22.3398 8.93219 22.3213 8.39868 22.2969C9.16117 21.2758 9.85889 20.3419 10.6139 19.3312C11.3755 20.3444 12.0814 21.2836 12.8737 22.3381Z" fill="#585B6C"/>
<path fill-rule="evenodd" clip-rule="evenodd" d="M3.90662 27.8056C3.90662 27.5261 3.90662 27.2875 3.90662 27.0082C6.69962 27.0082 9.47255 27.0082 12.2841 27.0082C12.2841 27.2644 12.2841 27.5155 12.2841 27.8056C9.51193 27.8056 6.73763 27.8056 3.90662 27.8056Z" fill="#575B6D"/>
<path fill-rule="evenodd" clip-rule="evenodd" d="M0.579102 7.98029C0.737681 7.94218 0.896412 7.87101 1.05514 7.87086C5.5279 7.86673 10.0007 7.86963 14.4734 7.87132L14.5041 7.85754C14.5037 7.90086 14.5034 7.94386 14.5031 7.98702C14.5031 7.98702 14.4611 7.97692 14.4609 7.97692C9.83356 7.97799 5.20633 7.97922 0.579102 7.98029Z" fill="#F2CC7D"/>
<path fill-rule="evenodd" clip-rule="evenodd" d="M22.7139 7.87147C27.1867 7.86963 31.6595 7.86673 36.1322 7.87101C36.2909 7.87117 36.4497 7.94233 36.6082 7.98044C31.9809 7.97937 27.3536 7.9783 22.7264 7.97723L22.6846 7.98702C22.6841 7.94386 22.6837 7.9007 22.6832 7.85754L22.7139 7.87147Z" fill="#F2CC7D"/>
<path fill-rule="evenodd" clip-rule="evenodd" d="M22.6832 7.85754C22.6837 7.9007 22.6842 7.94386 22.6846 7.98702C19.9573 7.98702 17.23 7.98702 14.5028 7.98702C14.5033 7.94386 14.5036 7.90086 14.504 7.85754C17.2304 7.85754 19.9568 7.85754 22.6832 7.85754Z" fill="#E2D8C8"/>
</svg>
