<svg width="53" height="57" viewBox="0 0 53 57" fill="none" xmlns="http://www.w3.org/2000/svg">
<path fill-rule="evenodd" clip-rule="evenodd" d="M31.1824 49.3768C30.1759 49.8772 29.1969 50.3633 28.2183 50.8509C27.3895 51.2639 26.5438 51.6476 25.7392 52.1036C25.1688 52.4269 24.6765 52.4119 24.087 52.1383C17.2304 48.9547 10.3641 45.7921 3.50046 42.624C2.67675 42.2439 1.85576 41.8582 1.02811 41.4867C0.559216 41.2764 0.351659 40.9375 0.351962 40.4185C0.358174 30.8398 0.359234 21.2613 0.350144 11.683C0.34969 11.0697 0.665872 10.7771 1.1781 10.5414C8.37183 7.23217 15.584 3.96141 22.7317 0.554909C24.3054 -0.195174 25.5087 -0.194265 27.0686 0.615206C33.5587 3.98383 40.1242 7.20763 46.6756 10.457C47.3647 10.7988 47.6352 11.2197 47.6329 11.9917C47.61 19.9043 47.6208 27.8171 47.6129 35.7298C47.6124 36.0953 47.6932 36.3469 48.0023 36.5914C51.4698 39.3342 52.9459 43.8429 51.7707 48.0278C50.5634 52.3278 47.0069 55.3927 42.5765 55.951C37.9929 56.5287 33.5478 54.1307 31.482 49.9664C31.3909 49.7832 31.2968 49.6016 31.1824 49.3768ZM2.19256 12.9324C2.18302 13.1358 2.17468 13.2298 2.17468 13.3239C2.17408 22.0711 2.17802 30.8184 2.16165 39.5657C2.1609 39.9888 2.37133 40.1055 2.6763 40.2459C9.57763 43.4256 16.4767 46.6106 23.3765 49.7937C23.5583 49.8776 23.7447 49.9512 23.9636 50.0444C23.9746 49.8846 23.9865 49.7928 23.9865 49.7008C23.9874 40.9346 23.9854 32.1683 23.9954 23.402C23.9957 23.0833 23.8866 22.9395 23.6086 22.8125C21.1331 21.6817 18.6642 20.5356 16.1922 19.3968C16.082 19.346 15.9595 19.3228 15.8075 19.2759C15.8075 19.5322 15.8075 19.7396 15.8075 19.947C15.8075 24.6048 15.8084 29.2624 15.8068 33.92C15.8065 34.9985 15.2594 35.3645 14.2737 34.9438C12.4136 34.1495 10.5566 33.3476 8.69741 32.5512C7.65887 32.1064 7.62751 32.0635 7.62751 30.9603C7.62751 25.9618 7.63039 20.9633 7.61782 15.9648C7.61736 15.7568 7.53207 15.4291 7.38844 15.3594C5.69133 14.5395 3.97573 13.7578 2.19256 12.9324ZM45.7754 13.0225C45.5667 13.1149 45.3954 13.1827 45.2313 13.2647C38.893 16.4314 32.5569 19.6029 26.2126 22.7581C25.8548 22.9361 25.7992 23.1624 25.7993 23.5121C25.8067 32.1619 25.8051 40.8117 25.8063 49.4615C25.8063 49.6215 25.8231 49.7812 25.8358 50.0087C27.3993 49.2293 28.9052 48.4886 30.3947 47.7161C30.5086 47.657 30.5531 47.3729 30.5502 47.1949C30.5321 46.0096 30.3542 44.8095 30.4827 43.6422C31.1432 37.6382 37.2284 33.2254 43.1491 34.4108C44.031 34.5874 44.891 34.8732 45.7752 35.1122C45.7753 27.7803 45.7754 20.4283 45.7754 13.0225ZM41.2948 54.2233C46.2457 54.2201 50.3379 50.1305 50.3445 45.1796C50.3511 40.1408 46.2747 36.0368 41.2739 36.0479C36.2062 36.0589 32.1574 40.1299 32.1689 45.2028C32.1802 50.1731 36.2809 54.2265 41.2948 54.2233ZM44.6501 11.4903C41.9051 10.118 39.2714 8.79372 36.6244 7.49642C36.4518 7.41188 36.1427 7.47127 35.9553 7.57201C29.7911 10.8788 23.6338 14.1988 17.4763 17.5185C17.3512 17.5859 17.2363 17.6726 17.0535 17.7911C19.6428 18.9834 22.1587 20.1489 24.6864 21.2885C24.8455 21.3601 25.1195 21.2762 25.3009 21.1859C31.5782 18.0585 37.8508 14.9218 44.1237 11.7851C44.2697 11.7121 44.4091 11.6257 44.6501 11.4903ZM34.3685 6.35059C32.9748 5.65202 31.686 5.01784 30.4105 4.35836C30.0781 4.18655 29.8151 4.18261 29.4749 4.36032C23.1577 7.65941 16.8335 10.9446 10.5113 14.234C10.3545 14.3155 10.2051 14.4108 9.99818 14.5311C11.5214 15.2346 12.9841 15.8967 14.4328 16.5887C14.7914 16.7601 15.0683 16.7604 15.426 16.5666C20.4295 13.8555 25.4419 11.1615 30.4519 8.46282C31.7307 7.7741 33.0088 7.08401 34.3685 6.35059ZM27.9217 3.12967C26.9905 2.6629 26.1444 2.2143 25.2739 1.81919C25.055 1.71981 24.7165 1.70026 24.5035 1.79798C17.6354 4.9483 10.7757 8.11709 3.91586 11.2856C3.79269 11.3426 3.68255 11.4282 3.50954 11.5359C4.94001 12.197 6.28989 12.8311 7.65249 13.436C7.80096 13.502 8.05003 13.4514 8.20834 13.3696C12.4049 11.2004 16.5959 9.02034 20.7873 6.84145C23.1338 5.62157 25.4795 4.40047 27.9217 3.12967ZM13.9308 32.8234C13.9678 32.7189 13.9796 32.7009 13.9796 32.683C13.9834 28.0294 13.9907 23.3755 13.9731 18.722C13.9725 18.5472 13.7703 18.2949 13.5977 18.2113C12.374 17.6188 11.134 17.0599 9.89773 16.4934C9.76669 16.4335 9.62624 16.3938 9.44565 16.3286C9.44565 21.1306 9.44429 25.8777 9.45384 30.6249C9.45399 30.7432 9.54762 30.9262 9.64609 30.9697C11.059 31.5943 12.4802 32.1999 13.9308 32.8234Z" fill="#232323"/>
<path fill-rule="evenodd" clip-rule="evenodd" d="M41.2949 54.2235C36.2809 54.2266 32.1802 50.1732 32.169 45.2028C32.1575 40.1301 36.2062 36.0591 41.2741 36.0479C46.2748 36.037 50.3513 40.141 50.3446 45.1796C50.338 50.1308 46.2458 54.2204 41.2949 54.2235ZM40.3409 47.5048C39.6646 46.8182 39.0472 46.1814 38.4185 45.5562C37.9088 45.0495 37.3784 45.0039 36.9777 45.4125C36.5785 45.8193 36.6342 46.3376 37.1449 46.8527C37.9179 47.6323 38.6955 48.4076 39.4735 49.1823C40.1565 49.8629 40.546 49.86 41.2417 49.1654C42.9027 47.5069 44.5618 45.8463 46.2206 44.1855C46.3274 44.0786 46.4417 43.974 46.5251 43.85C46.8077 43.4311 46.7781 43.0155 46.417 42.6682C46.0753 42.3396 45.6708 42.318 45.2766 42.5886C45.1227 42.6943 44.9942 42.8391 44.8607 42.9729C43.3769 44.4588 41.8946 45.9463 40.3409 47.5048Z" fill="#6D61C9"/>
<path fill-rule="evenodd" clip-rule="evenodd" d="M34.3685 6.35059C33.0088 7.08401 31.7307 7.7741 30.4518 8.46282C25.4418 11.1615 20.4294 13.8557 15.4259 16.5666C15.0682 16.7604 14.7912 16.7601 14.4326 16.5887C12.9841 15.8968 11.5214 15.2346 9.99805 14.5311C10.205 14.4108 10.3545 14.3153 10.5112 14.234C16.8333 10.9446 23.1576 7.65941 29.4747 4.36032C29.815 4.18261 30.0779 4.18655 30.4104 4.35836C31.686 5.01799 32.9749 5.65202 34.3685 6.35059Z" fill="#6D61C9"/>
<path fill-rule="evenodd" clip-rule="evenodd" d="M13.9309 32.8233C12.4802 32.1997 11.059 31.5942 9.64595 30.9697C9.54763 30.9262 9.454 30.7432 9.4537 30.6249C9.44415 25.8777 9.44552 21.1306 9.44552 16.3286C9.62626 16.3939 9.7667 16.4335 9.8976 16.4934C11.1338 17.0599 12.3739 17.6188 13.5976 18.2113C13.7701 18.2948 13.9724 18.547 13.973 18.722C13.9906 23.3757 13.9833 28.0295 13.9795 32.683C13.9796 32.7009 13.9678 32.7188 13.9309 32.8233Z" fill="#6D61C9"/>
<path fill-rule="evenodd" clip-rule="evenodd" d="M40.3408 47.5041C41.8946 45.9458 43.3769 44.4584 44.8606 42.9721C44.994 42.8384 45.1225 42.6935 45.2764 42.5878C45.6708 42.3173 46.0752 42.3388 46.4168 42.6675C46.778 43.0147 46.8075 43.4303 46.525 43.8492C46.4415 43.9731 46.3273 44.0778 46.2204 44.1847C44.5617 45.8455 42.9026 47.5061 41.2415 49.1646C40.5458 49.8592 40.1563 49.8621 39.4733 49.1816C38.6954 48.4068 37.9176 47.6317 37.1448 46.8519C36.6342 46.337 36.5785 45.8185 36.9775 45.4117C37.3782 45.0033 37.9086 45.0488 38.4183 45.5554C39.0472 46.1806 39.6645 46.8174 40.3408 47.5041Z" fill="white"/>
</svg>
