<svg width="50" height="51" viewBox="0 0 50 51" fill="none" xmlns="http://www.w3.org/2000/svg">
<circle cx="25" cy="25.7" r="25" fill="#2765C8"/>
<path d="M18.3182 26.165C18.3182 29.315 19.0982 31.7 22.0982 31.7C25.0832 31.7 25.8632 29.315 25.8632 26.165C25.8632 23.06 25.0832 20.69 22.0982 20.69C19.0982 20.69 18.3182 23.06 18.3182 26.165ZM24.5132 26.165C24.5132 28.505 24.2282 30.455 22.0982 30.455C19.9532 30.455 19.6682 28.505 19.6682 26.165C19.6682 23.915 19.9532 21.935 22.0982 21.935C24.2282 21.935 24.5132 23.915 24.5132 26.165ZM28.8171 31.7H30.1971V20.855H27.3771V22.1H28.8171V31.7Z" fill="white"/>
</svg>
