<svg width="50" height="51" viewBox="0 0 50 51" fill="none" xmlns="http://www.w3.org/2000/svg">
<circle cx="25" cy="25.3999" r="25" fill="#37D679"/>
<path d="M17.2066 25.8649C17.2066 29.0149 17.9866 31.3999 20.9866 31.3999C23.9716 31.3999 24.7516 29.0149 24.7516 25.8649C24.7516 22.7599 23.9716 20.3899 20.9866 20.3899C17.9866 20.3899 17.2066 22.7599 17.2066 25.8649ZM23.4016 25.8649C23.4016 28.2049 23.1166 30.1549 20.9866 30.1549C18.8416 30.1549 18.5566 28.2049 18.5566 25.8649C18.5566 23.6149 18.8416 21.6349 20.9866 21.6349C23.1166 21.6349 23.4016 23.6149 23.4016 25.8649ZM26.4605 31.2799H33.6755V30.1399H28.5155C30.4505 28.5649 33.3605 26.2699 33.3605 23.5699C33.3605 21.5599 32.0405 20.3599 30.0005 20.3599C28.0505 20.3599 26.5955 21.5599 26.5055 23.8699H27.8255C27.8855 22.5049 28.6055 21.5299 30.0155 21.5299C31.4855 21.5299 32.0105 22.4299 32.0105 23.6299C32.0105 25.8499 29.3105 28.0099 26.4605 30.3049V31.2799Z" fill="white"/>
</svg>
