<svg width="68" height="38" viewBox="0 0 68 38" fill="none" xmlns="http://www.w3.org/2000/svg">
<path fill-rule="evenodd" clip-rule="evenodd" d="M32.688 22.8681C29.4669 24.1081 26.4506 25.2821 23.4236 26.4279C22.3959 26.8166 21.3649 27.2933 20.294 27.4522C17.8175 27.8198 15.5102 27.1695 13.558 25.6251C9.37263 22.3139 5.2515 18.921 1.10495 15.5606C0.819307 15.3291 0.515245 15.1129 0.262935 14.8486C-0.131922 14.4348 -0.0862483 13.8381 0.429791 13.6346C2.47203 12.8291 4.42809 11.75 6.69243 11.6181C9.03505 11.4817 11.1381 12.1148 13.0521 13.4617C15.1209 14.9177 17.2142 16.3389 19.2899 17.785C19.5894 17.9937 19.8292 18.1112 20.2163 17.9182C23.9387 16.064 27.6733 14.2341 31.4032 12.3952C31.5218 12.3368 31.6299 12.257 31.8198 12.1401C31.589 11.973 31.4194 11.838 31.2386 11.7213C28.1289 9.71237 25.0175 7.7066 21.9077 5.69787C20.894 5.04334 20.8962 4.49967 21.9132 3.87958C23.0519 3.18545 24.2096 2.52078 25.3253 1.79166C25.8813 1.4283 26.366 1.38391 26.9959 1.6191C31.7506 3.39393 36.5214 5.12585 41.2798 6.89165C41.8142 7.08982 42.248 7.08079 42.771 6.81688C45.4783 5.45035 48.1916 4.09266 50.9339 2.79814C55.4436 0.669156 60.0863 0.422739 64.8205 1.9808C66.6982 2.59869 67.8382 4.06577 67.8945 5.88149C67.9492 7.64232 66.8972 9.19302 65.0917 9.91256C59.523 12.1322 53.9439 14.3258 48.38 16.5572C48.0139 16.7041 47.6375 17.0222 47.4391 17.362C43.6169 23.9145 39.8107 30.477 36.033 37.0557C35.6371 37.7455 35.1917 38.0212 34.3937 37.9986C32.4624 37.9441 30.5284 37.9824 28.5954 37.9802C27.374 37.9789 27.1285 37.6107 27.5686 36.4446C29.1659 32.2115 30.7645 27.9785 32.3622 23.7456C32.4489 23.5163 32.5329 23.2861 32.688 22.8681ZM49.1603 14.4179C49.346 14.404 49.3959 14.4118 49.4366 14.3958C54.541 12.3762 59.6498 10.3674 64.7441 8.32262C65.7791 7.90714 66.3106 7.05388 66.2666 5.92217C66.223 4.80003 65.6646 3.92781 64.5916 3.63001C63.0717 3.2079 61.5182 2.80788 59.9542 2.66257C56.637 2.35465 53.5562 3.24897 50.5849 4.72526C40.5985 9.68694 30.5812 14.5862 20.5868 19.5317C19.8947 19.874 19.3858 19.8282 18.7608 19.3834C16.4743 17.7568 14.1654 16.1605 11.8371 14.5943C8.76448 12.5275 5.52993 12.9305 2.5011 14.6133C2.98951 15.0177 3.46246 15.4159 3.94203 15.8056C7.44197 18.6482 10.8935 21.5535 14.4621 24.307C16.6366 25.9847 19.0785 26.4956 21.7833 25.3827C25.287 23.941 28.8434 22.626 32.3946 21.3028C33.1438 21.0236 33.6592 20.6595 33.8462 19.8503C33.9535 19.3849 34.1399 18.9252 34.3677 18.5045C34.5195 18.2242 34.7626 17.9058 35.0405 17.7944C39.5397 15.9934 44.048 14.2151 48.5671 12.4649C48.8242 12.3653 49.3054 12.4463 49.4762 12.6325C49.6522 12.8246 49.641 13.2583 49.5913 13.567C49.5478 13.839 49.3377 14.0841 49.1603 14.4179ZM46.9628 14.8591C46.6964 14.9385 46.586 14.9624 46.4825 15.0035C43.0851 16.35 39.6842 17.6876 36.2992 19.0644C36.0116 19.1814 35.7303 19.5219 35.615 19.8234C33.6026 25.0832 31.6164 30.353 29.6257 35.6212C29.5473 35.8289 29.4834 36.0422 29.3751 36.3645C30.9033 36.3645 32.3264 36.3378 33.7474 36.3774C34.3215 36.3934 34.6482 36.2225 34.9443 35.7074C38.8201 28.9714 42.7219 22.2504 46.6158 15.5247C46.7176 15.3488 46.8042 15.1643 46.9628 14.8591ZM23.5983 4.76739C23.725 4.88655 23.7821 4.95929 23.8554 5.00662C26.9679 7.0159 30.0779 9.02923 33.2058 11.0146C33.4058 11.1415 33.7836 11.1341 34.0158 11.038C34.758 10.7302 35.4724 10.3536 36.1949 9.99851C37.403 9.40512 38.609 8.80767 39.8742 8.18334C39.7346 8.0791 39.6897 8.02698 39.6331 8.00617C35.3175 6.41496 31.0021 4.8243 26.6819 3.24598C26.5062 3.1817 26.2443 3.16384 26.0945 3.24966C25.2636 3.72592 24.4547 4.24085 23.5983 4.76739Z" fill="black"/>
<path fill-rule="evenodd" clip-rule="evenodd" d="M46.9628 14.8591C46.8044 15.1643 46.7176 15.3488 46.6158 15.5247C42.7219 22.2504 38.8201 28.9714 34.9443 35.7073C34.6482 36.2225 34.3215 36.3934 33.7474 36.3774C32.3264 36.3378 30.9033 36.3645 29.3751 36.3645C29.4834 36.0422 29.5473 35.8289 29.6257 35.6212C31.6164 30.353 33.6025 25.083 35.615 19.8234C35.7303 19.5219 36.0116 19.1814 36.2992 19.0644C39.6842 17.6876 43.0851 16.35 46.4825 15.0035C46.586 14.9624 46.6965 14.9385 46.9628 14.8591Z" fill="#27C7DC"/>
<path fill-rule="evenodd" clip-rule="evenodd" d="M23.5983 4.76739C24.4549 4.24104 25.2636 3.72592 26.0945 3.24966C26.2443 3.16384 26.5062 3.1817 26.6819 3.24598C31.0021 4.8243 35.3177 6.41514 39.6331 8.00617C39.6897 8.02698 39.7346 8.0791 39.8742 8.18334C38.6091 8.80767 37.403 9.40512 36.1949 9.99851C35.4724 10.3534 34.758 10.73 34.0158 11.038C33.7836 11.1341 33.4058 11.1415 33.2058 11.0146C30.0779 9.02941 26.9679 7.0159 23.8554 5.00662C23.7819 4.95929 23.7249 4.88655 23.5983 4.76739Z" fill="#27C7DC"/>
</svg>
