<svg width="177" height="19" viewBox="0 0 177 19" fill="none" xmlns="http://www.w3.org/2000/svg">
<path d="M0.92041 18.4492L2.97559 9.521C3.4847 7.32731 4.24837 5.5791 5.2666 4.27637C7.06348 1.97038 9.07373 0.817383 11.2974 0.817383C13.536 0.817383 15.0146 1.97038 15.7334 4.27637L13.7119 5.15234H13.5996C13.1654 3.53516 12.252 2.72656 10.8594 2.72656C9.4668 2.72656 8.17904 3.53516 6.99609 5.15234C6.38965 5.9834 5.88053 7.12142 5.46875 8.56641H11.8477L11.8252 8.67871L10.5674 10.4756H5.0083L3.40234 17.4385L1.03271 18.4492H0.92041ZM14.7114 18.4492L16.7666 9.521C17.2682 7.34229 18.0319 5.59408 19.0576 4.27637C20.8545 1.97038 22.8647 0.817383 25.0884 0.817383C27.3195 0.817383 28.7982 1.97038 29.5244 4.27637C29.7116 4.86784 29.8052 5.54915 29.8052 6.32031C29.8052 7.26367 29.6667 8.33057 29.3896 9.521C28.873 11.7446 28.1169 13.403 27.1211 14.4961C26.4997 15.1774 25.8745 15.709 25.2456 16.0908H28.4351L28.4126 16.2031L27.1548 18H20.9443L20.9668 17.8877L22.2246 16.0908C23.3252 15.7464 24.2948 15.0426 25.1333 13.9795C26.0392 12.834 26.6307 11.666 26.9077 10.4756H18.7993L17.1934 17.4385L14.8237 18.4492H14.7114ZM19.2598 8.56641H27.3457C27.4805 7.80273 27.5479 7.12516 27.5479 6.53369C27.5479 6.0096 27.4954 5.54915 27.3906 5.15234C26.9639 3.53516 26.0505 2.72656 24.6504 2.72656C23.2428 2.72656 21.9551 3.52767 20.7871 5.12988C20.1807 5.97591 19.6715 7.12142 19.2598 8.56641ZM31.209 14.7656C31.209 14.7656 31.8828 14.4736 33.2305 13.8896H33.3428C33.7845 15.5068 34.7017 16.3154 36.0942 16.3154C37.0601 16.3154 38.0146 15.8849 38.958 15.0239C39.6318 14.41 40.0885 13.6126 40.3281 12.6318C40.388 12.3848 40.418 12.1527 40.418 11.9355C40.418 11.4788 40.2944 11.082 40.0474 10.7451C39.6056 10.1462 38.8794 9.73438 37.8687 9.50977C36.7606 9.2627 35.8621 8.84342 35.1733 8.25195C34.5295 7.69792 34.2075 7.00163 34.2075 6.16309C34.2075 5.89355 34.2412 5.60156 34.3086 5.28711C34.6305 3.93197 35.3717 2.82389 36.5322 1.96289C37.5579 1.19922 38.7147 0.817383 40.0024 0.817383C41.6795 0.817383 42.7876 1.6709 43.3267 3.37793L41.3501 4.22021H41.2378C40.9683 3.22445 40.4105 2.72656 39.5645 2.72656C38.8532 2.72656 38.2205 2.95492 37.6665 3.41162C37.12 3.86084 36.7643 4.42985 36.5996 5.11865C36.5547 5.30583 36.5322 5.47803 36.5322 5.63525C36.5322 6.00212 36.6445 6.3016 36.8691 6.53369C37.2734 6.96794 37.9735 7.28988 38.9692 7.49951C40.3169 7.78402 41.3351 8.368 42.0239 9.25146C42.5031 9.8654 42.7427 10.5954 42.7427 11.4414C42.7427 11.8457 42.6903 12.265 42.5854 12.6992C42.271 14.0993 41.4362 15.3721 40.0811 16.5176C38.7334 17.6556 37.2547 18.2246 35.645 18.2246C33.4064 18.2246 31.9277 17.0716 31.209 14.7656ZM45.7861 18.4492L49.3687 2.95117H48.0098C47.1188 2.95117 46.4637 3.38916 46.0444 4.26514H45.9321L44.4385 3.46777C45.2546 1.85059 46.5947 1.04199 48.459 1.04199H56.8594L56.8257 1.1543L55.5679 2.95117H51.6147L48.2681 17.4385L45.8984 18.4492H45.7861Z" fill="#FFAE00"/>
<path d="M63.9009 18.4492L65.9561 9.521C66.4577 7.34229 67.2214 5.59408 68.2471 4.27637C70.0439 1.97038 72.0542 0.817383 74.2778 0.817383C76.5314 0.817383 78.0101 1.97038 78.7139 4.27637C78.8936 4.86784 78.9834 5.54541 78.9834 6.30908C78.9834 7.23747 78.8486 8.30811 78.5791 9.521C78.1523 11.4077 77.4036 13.0586 76.333 14.4736C74.5736 16.8245 72.5671 18 70.3135 18H68.146L68.1685 17.8877L69.4263 16.0908H70.7515C72.1366 16.0908 73.4206 15.2598 74.6035 13.5977C75.3822 12.5046 75.9587 11.1457 76.333 9.521C76.6025 8.35303 76.7373 7.35352 76.7373 6.52246C76.7373 6.00586 76.6849 5.54915 76.5801 5.15234C76.1533 3.53516 75.2399 2.72656 73.8398 2.72656C72.4473 2.72656 71.1595 3.53516 69.9766 5.15234C69.2354 6.16309 68.6439 7.6193 68.2021 9.521L66.3828 17.4385L64.0132 18.4492H63.9009ZM93.5269 12.6768C93.2274 13.3805 92.8118 14.0768 92.2803 14.7656C90.5059 17.0716 88.4956 18.2246 86.2495 18.2246C84.0184 18.2246 82.5397 17.0716 81.8135 14.7656C81.6263 14.1742 81.5327 13.4928 81.5327 12.7217C81.5327 11.7783 81.6712 10.7114 81.9482 9.521C82.4574 7.3348 83.221 5.58659 84.2393 4.27637C86.0361 1.97038 88.0464 0.817383 90.27 0.817383C92.5086 0.817383 93.9873 1.97038 94.7061 4.27637L92.6846 5.15234H92.5723C92.138 3.53516 91.2246 2.72656 89.832 2.72656C88.4395 2.72656 87.1517 3.53516 85.9688 5.15234C85.3623 5.9834 84.8532 7.12142 84.4414 8.56641H91.1572L91.1348 8.67871L89.877 10.4756H84.0034C83.8612 11.2692 83.79 11.9655 83.79 12.5645C83.79 13.0811 83.8424 13.5228 83.9473 13.8896C84.4115 15.5068 85.3286 16.3154 86.6987 16.3154C88.0838 16.3154 89.3678 15.5068 90.5508 13.8896L93.4146 12.6768H93.5269ZM98.7041 18C97.1393 18 96.3569 17.4385 96.3569 16.3154C96.3569 16.0983 96.3869 15.8587 96.4468 15.5967L99.6812 1.60352L102.051 0.592773H102.163L98.6929 15.5967C98.618 15.9261 98.7677 16.0908 99.1421 16.0908H103.017C103.9 16.0908 104.555 15.6528 104.982 14.7769H105.094L106.599 15.5742C105.776 17.1914 104.435 18 102.579 18H98.7041ZM107.116 18.4492L111.001 1.60352L113.371 0.592773H113.483L109.598 17.4385L107.228 18.4492H107.116ZM117.74 1.60352L120.109 0.592773H120.222L118.155 9.521C117.863 10.7788 117.717 11.8083 117.717 12.6094C117.717 13.1335 117.781 13.5602 117.908 13.8896C118.507 15.5068 119.424 16.3154 120.66 16.3154C122.03 16.3154 123.314 15.5068 124.512 13.8896C125.238 12.9163 125.829 11.4601 126.286 9.521C126.563 8.35303 126.702 7.35726 126.702 6.53369C126.702 6.00212 126.646 5.54167 126.533 5.15234C126.159 3.84212 125.388 2.88005 124.22 2.26611L125.455 0.592773H125.567C127.065 1.14681 128.098 2.37467 128.667 4.27637C128.847 4.87533 128.937 5.56038 128.937 6.33154C128.937 7.2749 128.802 8.33805 128.532 9.521C128.038 11.6847 127.274 13.4329 126.241 14.7656C124.452 17.0716 122.442 18.2246 120.21 18.2246C117.979 18.2246 116.501 17.0716 115.774 14.7656C115.587 14.1742 115.494 13.4928 115.494 12.7217C115.494 11.7783 115.632 10.7114 115.909 9.521L117.74 1.60352ZM143.48 12.6768C143.181 13.3805 142.765 14.0768 142.233 14.7656C140.459 17.0716 138.449 18.2246 136.203 18.2246C133.972 18.2246 132.493 17.0716 131.767 14.7656C131.579 14.1742 131.486 13.4928 131.486 12.7217C131.486 11.7783 131.624 10.7114 131.901 9.521C132.41 7.3348 133.174 5.58659 134.192 4.27637C135.989 1.97038 138 0.817383 140.223 0.817383C142.462 0.817383 143.94 1.97038 144.659 4.27637L142.638 5.15234H142.525C142.091 3.53516 141.178 2.72656 139.785 2.72656C138.393 2.72656 137.105 3.53516 135.922 5.15234C135.315 5.9834 134.806 7.12142 134.395 8.56641H141.11L141.088 8.67871L139.83 10.4756H133.957C133.814 11.2692 133.743 11.9655 133.743 12.5645C133.743 13.0811 133.796 13.5228 133.9 13.8896C134.365 15.5068 135.282 16.3154 136.652 16.3154C138.037 16.3154 139.321 15.5068 140.504 13.8896L143.368 12.6768H143.48ZM145.524 18.4492L147.579 9.521C148.081 7.34229 148.844 5.59408 149.87 4.27637C151.667 1.97038 153.677 0.817383 155.901 0.817383C157.773 0.817383 159.087 1.50618 159.843 2.88379C160.255 3.63249 160.46 4.43734 160.46 5.29834C160.46 5.75505 160.404 6.22673 160.292 6.71338C159.993 8.00114 159.263 9.2028 158.102 10.3184C157.353 11.0371 156.504 11.5687 155.553 11.9131L158.181 17.5171L155.991 18.4492H155.878L153.037 12.3848H150.499L150.533 12.2725L151.791 10.4756H153.116C154.523 10.4756 155.609 10.1312 156.373 9.44238C157.249 8.64876 157.806 7.7391 158.046 6.71338C158.143 6.29411 158.192 5.90479 158.192 5.54541C158.192 4.84912 158.012 4.25765 157.653 3.771C157.136 3.07471 156.406 2.72656 155.463 2.72656C154.085 2.72656 152.798 3.53516 151.6 5.15234C150.858 6.1556 150.267 7.61182 149.825 9.521L148.006 17.4385L145.636 18.4492H145.524ZM165.817 7.28613C165.705 7.7653 165.649 8.21077 165.649 8.62256C165.649 9.37126 165.825 10.0076 166.177 10.5317C166.723 11.3628 167.521 11.7783 168.569 11.7783C169.587 11.7783 170.523 11.389 171.376 10.6104C172.215 9.84668 172.75 8.96322 172.982 7.95996L174.454 1.60352L176.823 0.592773H176.936L173.05 17.4385L170.68 18.4492H170.568L172.039 12.0479C170.849 13.141 169.546 13.6875 168.131 13.6875C166.199 13.6875 164.81 12.9238 163.964 11.3965C163.568 10.6777 163.369 9.8654 163.369 8.95947C163.369 8.43538 163.437 7.8776 163.571 7.28613C163.788 6.3278 164.234 5.4668 164.908 4.70312C165.552 3.9694 166.428 3.38542 167.536 2.95117H164.346L164.38 2.83887L165.638 1.04199H171.848L171.814 1.1543L170.557 2.95117C169.321 3.25065 168.224 3.85335 167.266 4.75928C166.532 5.45557 166.049 6.29785 165.817 7.28613Z" fill="black"/>
</svg>
