<svg width="52" height="57" viewBox="0 0 52 57" fill="none" xmlns="http://www.w3.org/2000/svg">
<path fill-rule="evenodd" clip-rule="evenodd" d="M50.3203 56.8615C33.8098 56.8615 17.2992 56.8615 0.7887 56.8615C0.187137 56.5346 -0.000499373 56.0347 9.29651e-05 55.3521C0.0143102 37.4046 0.0143102 19.4569 9.29651e-05 1.50924C-0.000499373 0.826816 0.185508 0.325958 0.7887 0C9.89552 0 19.0022 0 28.1089 0C28.7106 0.326846 28.9028 0.827112 28.8982 1.50983C28.8732 5.24731 28.8864 8.98494 28.8864 12.7226C28.8864 12.9167 28.8864 13.1109 28.8864 13.3269C29.1925 13.3269 29.4137 13.3269 29.6345 13.3269C36.2772 13.3269 42.9199 13.3268 49.5624 13.3269C50.7531 13.3271 51.0977 13.6639 51.0977 14.8298C51.098 28.3371 51.0941 41.8445 51.1091 55.3516C51.1098 56.0338 50.9204 56.5337 50.3203 56.8615ZM20.0015 54.6002C22.2584 54.6002 24.4479 54.6002 26.6214 54.6002C26.6214 37.1208 26.6214 19.6814 26.6214 2.25073C18.479 2.25073 10.3802 2.25073 2.2652 2.25073C2.2652 19.7195 2.2652 37.1587 2.2652 54.6008C4.48796 54.6008 6.6774 54.6008 8.89572 54.6008C8.89572 54.3595 8.89572 54.158 8.89572 53.9563C8.89572 50.9214 8.89365 47.8863 8.89705 44.8515C8.89794 44.0135 9.29839 43.5434 10.0614 43.5403C12.9852 43.5289 15.9092 43.5295 18.8331 43.54C19.5581 43.5427 19.9922 43.998 19.9975 44.7385C20.0086 46.2929 20.0012 47.8475 20.0012 49.4019C20.0017 51.1213 20.0015 52.8407 20.0015 54.6002ZM48.8517 15.5869C42.1782 15.5869 35.5472 15.5869 28.9298 15.5869C28.9298 24.9218 28.9298 34.2176 28.9298 43.5054C35.5911 43.5054 42.209 43.5054 48.8517 43.5054C48.8517 34.1935 48.8517 24.9108 48.8517 15.5869ZM48.8517 45.7949C42.1766 45.7949 35.5464 45.7949 28.931 45.7949C28.931 48.7636 28.931 51.693 28.931 54.6113C35.5927 54.6113 42.2098 54.6113 48.8517 54.6113C48.8517 51.666 48.8517 48.7499 48.8517 45.7949ZM11.1555 45.7812C11.1555 48.7523 11.1555 51.6808 11.1555 54.5966C13.383 54.5966 15.5716 54.5966 17.7518 54.5966C17.7518 51.6374 17.7518 48.7218 17.7518 45.7812C15.5477 45.7812 13.3724 45.7812 11.1555 45.7812Z" fill="black"/>
<rect x="28.9091" y="14.709" width="20" height="13" fill="#ECE64A"/>
<path fill-rule="evenodd" clip-rule="evenodd" d="M48.8517 45.7949C48.8517 48.7499 48.8517 51.6662 48.8517 54.6113C42.2098 54.6113 35.5929 54.6113 28.931 54.6113C28.931 51.693 28.931 48.7636 28.931 45.7949C35.5464 45.7949 42.1766 45.7949 48.8517 45.7949Z" fill="#ECE64A"/>
<path fill-rule="evenodd" clip-rule="evenodd" d="M11.1555 45.7812C13.3724 45.7812 15.5478 45.7812 17.7519 45.7812C17.7519 48.7218 17.7519 51.6374 17.7519 54.5966C15.5716 54.5966 13.383 54.5966 11.1555 54.5966C11.1555 51.6808 11.1555 48.7522 11.1555 45.7812Z" fill="#ECE64A"/>
<path fill-rule="evenodd" clip-rule="evenodd" d="M8.89428 6.71647C8.89383 7.06701 8.90776 7.41829 8.89072 7.76795C8.85933 8.40801 8.4414 8.85363 7.81067 8.87511C7.05508 8.90087 6.29743 8.90043 5.54185 8.8754C4.90904 8.85437 4.47912 8.41083 4.46075 7.7715C4.43957 7.03413 4.43943 6.29514 4.4606 5.55777C4.47971 4.89534 4.92236 4.46483 5.59353 4.4478C6.31253 4.42958 7.03287 4.42944 7.75187 4.4478C8.44585 4.46542 8.86881 4.90615 8.8928 5.60961C8.90509 5.97807 8.89472 6.34742 8.89428 6.71647Z" fill="black"/>
<path fill-rule="evenodd" clip-rule="evenodd" d="M16.6673 6.69994C16.6679 7.05049 16.6808 7.40147 16.6651 7.75142C16.6351 8.41977 16.2103 8.85902 15.5455 8.87783C14.8081 8.89857 14.0693 8.8996 13.3319 8.8768C12.6944 8.85695 12.256 8.422 12.2359 7.7877C12.2123 7.05049 12.215 6.31164 12.2338 5.57412C12.2508 4.90577 12.6852 4.46696 13.3509 4.4486C14.0883 4.42831 14.8271 4.42727 15.5645 4.44949C16.2008 4.46874 16.6291 4.90296 16.663 5.53769C16.6836 5.92422 16.6667 6.31253 16.6673 6.69994Z" fill="black"/>
<path fill-rule="evenodd" clip-rule="evenodd" d="M24.4428 6.68694C24.4423 7.03748 24.454 7.38847 24.4398 7.73857C24.4126 8.41018 23.9926 8.85713 23.3329 8.87742C22.5956 8.90023 21.8567 8.89949 21.1192 8.87786C20.4559 8.85846 20.0242 8.41566 20.0073 7.74627C19.989 7.02712 19.9891 6.30693 20.007 5.58778C20.0243 4.89277 20.4639 4.46285 21.1671 4.447C21.8677 4.4313 22.5694 4.4316 23.2702 4.44671C23.9961 4.46226 24.4207 4.90091 24.4416 5.63532C24.4515 5.98556 24.4434 6.3364 24.4428 6.68694Z" fill="black"/>
<path fill-rule="evenodd" clip-rule="evenodd" d="M6.71104 12.2184C7.06158 12.2178 7.41271 12.2055 7.76251 12.2206C8.43042 12.2492 8.87056 12.6741 8.88907 13.339C8.90966 14.0764 8.9107 14.8154 8.88789 15.5527C8.86804 16.1901 8.43412 16.6291 7.79954 16.6501C7.06232 16.6744 6.32332 16.6717 5.58596 16.6523C4.91746 16.6347 4.4782 16.1993 4.45999 15.5348C4.4397 14.7975 4.43881 14.0585 4.46088 13.3211C4.47998 12.6834 4.91375 12.256 5.54879 12.2228C5.93531 12.2025 6.32362 12.219 6.71104 12.2184Z" fill="black"/>
<path fill-rule="evenodd" clip-rule="evenodd" d="M16.6673 14.4513C16.6669 14.8202 16.683 15.1902 16.6633 15.558C16.6291 16.1942 16.2041 16.6313 15.5683 16.6507C14.8127 16.6736 14.0551 16.6754 13.2997 16.6483C12.6925 16.6265 12.2587 16.1914 12.2378 15.5848C12.2116 14.8294 12.2132 14.0717 12.2357 13.316C12.2545 12.6804 12.6917 12.2441 13.3281 12.2243C14.0653 12.2013 14.8042 12.2031 15.5417 12.2228C16.2078 12.2404 16.6351 12.6771 16.665 13.3444C16.6814 13.7128 16.6679 14.0824 16.6673 14.4513Z" fill="black"/>
<path fill-rule="evenodd" clip-rule="evenodd" d="M22.1817 16.6563C21.831 16.6567 21.48 16.6697 21.13 16.6539C20.463 16.6235 20.0255 16.1967 20.0079 15.5307C19.9882 14.7932 19.9866 14.0544 20.0093 13.317C20.0288 12.6811 20.4648 12.2433 21.1007 12.2242C21.8564 12.2014 22.6141 12.1999 23.3697 12.2261C23.9755 12.247 24.412 12.6817 24.4335 13.2877C24.4603 14.0433 24.4585 14.8009 24.4355 15.5565C24.4163 16.1924 23.9792 16.6188 23.3438 16.652C22.9574 16.6721 22.5691 16.6558 22.1817 16.6563Z" fill="black"/>
<path fill-rule="evenodd" clip-rule="evenodd" d="M8.89307 22.1696C8.89307 22.5572 8.90936 22.9454 8.88937 23.3319C8.85649 23.9675 8.43057 24.405 7.79465 24.4244C7.03892 24.4476 6.28126 24.4491 5.52583 24.4222C4.91864 24.4005 4.48472 23.9653 4.46384 23.3588C4.43762 22.6031 4.43866 21.8456 4.46176 21.0899C4.48176 20.4348 4.93448 20.0107 5.60935 19.995C6.30999 19.9787 7.01167 19.98 7.71245 19.994C8.44538 20.0086 8.87011 20.4403 8.89336 21.1734C8.90373 21.5051 8.89514 21.8375 8.89514 22.1696C8.8944 22.1696 8.89381 22.1696 8.89307 22.1696Z" fill="black"/>
<path fill-rule="evenodd" clip-rule="evenodd" d="M16.6687 22.2336C16.6682 22.5842 16.6799 22.935 16.6657 23.2851C16.6383 23.9575 16.2189 24.4047 15.56 24.4251C14.8228 24.4481 14.0838 24.4472 13.3464 24.4257C12.683 24.4065 12.2507 23.9641 12.2335 23.2952C12.215 22.5762 12.2154 21.8558 12.2332 21.1368C12.2502 20.4415 12.6893 20.0107 13.3918 19.9949C14.0926 19.979 14.7941 19.9796 15.4949 19.9944C16.222 20.01 16.6459 20.447 16.6675 21.182C16.6777 21.5322 16.6691 21.8831 16.6687 22.2336Z" fill="black"/>
<path fill-rule="evenodd" clip-rule="evenodd" d="M22.2353 19.9924C22.6042 19.9927 22.9741 19.9773 23.3421 19.9963C23.9776 20.0289 24.4163 20.4539 24.4358 21.0894C24.4588 21.8451 24.4604 22.6028 24.4335 23.3583C24.412 23.9649 23.9779 24.4003 23.3716 24.4221C22.616 24.4492 21.8584 24.4474 21.1026 24.4245C20.4661 24.4052 20.0294 23.9679 20.0096 23.3326C19.9866 22.5952 19.9885 21.8564 20.0079 21.1189C20.0253 20.4515 20.4614 20.0243 21.1284 19.995C21.4967 19.9787 21.8664 19.992 22.2353 19.9924Z" fill="black"/>
<path fill-rule="evenodd" clip-rule="evenodd" d="M6.68643 27.7666C7.05549 27.7669 7.42513 27.7515 7.7933 27.7705C8.42892 27.8029 8.86728 28.2276 8.88772 28.8628C8.91127 29.6002 8.90934 30.3392 8.88935 31.0765C8.87128 31.7434 8.4347 32.1818 7.76901 32.2001C7.03164 32.2206 6.29265 32.2219 5.55528 32.1988C4.91847 32.1788 4.48144 31.7427 4.46145 31.1075C4.43835 30.3701 4.44057 29.6311 4.45967 28.8939C4.477 28.2263 4.91284 27.7986 5.57957 27.7691C5.94788 27.753 6.31753 27.7663 6.68643 27.7666Z" fill="black"/>
<path fill-rule="evenodd" clip-rule="evenodd" d="M14.408 32.2044C14.0574 32.2049 13.7063 32.2179 13.3565 32.202C12.6893 32.1718 12.2517 31.7452 12.2339 31.0793C12.2142 30.342 12.2128 29.603 12.2353 28.8657C12.2547 28.23 12.6905 27.7916 13.3263 27.7725C14.082 27.7497 14.8395 27.7484 15.595 27.7743C16.2008 27.7952 16.6373 28.2291 16.659 28.8355C16.6863 29.591 16.6845 30.3486 16.6614 31.1042C16.6419 31.7412 16.2053 32.1671 15.5701 32.2003C15.1837 32.2204 14.7954 32.204 14.408 32.2044Z" fill="black"/>
<path fill-rule="evenodd" clip-rule="evenodd" d="M24.4434 29.9861C24.4428 30.3366 24.4529 30.6875 24.4406 31.0377C24.416 31.7416 23.9947 32.1825 23.3003 32.2008C22.5813 32.2198 21.8609 32.22 21.1419 32.2008C20.449 32.1823 20.021 31.7395 20.006 31.0353C19.9911 30.3347 19.9906 29.6329 20.0062 28.9322C20.0222 28.2088 20.4633 27.7814 21.1998 27.7675C21.8637 27.755 22.5282 27.7578 23.1923 27.7663C24.0199 27.7768 24.4311 28.2018 24.4433 29.0452C24.4476 29.3588 24.4438 29.6726 24.4434 29.9861Z" fill="black"/>
<path fill-rule="evenodd" clip-rule="evenodd" d="M6.64513 39.9797C6.29459 39.9791 5.94361 39.9911 5.59366 39.9766C4.92293 39.9488 4.47983 39.5264 4.46058 38.8646C4.43925 38.1272 4.43911 37.3881 4.46073 36.6508C4.48013 35.9899 4.92471 35.5607 5.59662 35.5441C6.31577 35.5264 7.03596 35.5256 7.75511 35.5441C8.44834 35.562 8.87604 36.0038 8.89144 36.709C8.90684 37.4098 8.90744 38.1115 8.89115 38.8121C8.87426 39.5363 8.43294 39.9581 7.69676 39.9785C7.34636 39.9883 6.99567 39.9803 6.64513 39.9797Z" fill="black"/>
<path fill-rule="evenodd" clip-rule="evenodd" d="M14.4222 39.9798C14.0717 39.9793 13.7207 39.991 13.3707 39.9767C12.699 39.9491 12.2542 39.5284 12.2347 38.8676C12.2129 38.1304 12.2134 37.3914 12.2345 36.6542C12.2535 35.9916 12.6963 35.5611 13.3673 35.5442C14.0863 35.526 14.8065 35.526 15.5257 35.5442C16.2192 35.5615 16.6491 36.0022 16.6651 36.706C16.6811 37.4066 16.6812 38.1083 16.6651 38.8089C16.6485 39.5342 16.2082 39.9577 15.4737 39.9784C15.1234 39.9885 14.7727 39.9802 14.4222 39.9798Z" fill="black"/>
<path fill-rule="evenodd" clip-rule="evenodd" d="M24.4406 37.8006C24.4398 38.1696 24.4583 38.5396 24.4355 38.9073C24.3981 39.5137 23.9772 39.9484 23.3704 39.9702C22.615 39.9971 21.8573 39.9955 21.1016 39.9724C20.4653 39.953 20.0285 39.5154 20.0096 38.8796C19.9871 38.1237 19.9856 37.3661 20.0118 36.6106C20.0327 36.0045 20.4675 35.5697 21.0744 35.5485C21.8299 35.5221 22.5875 35.5238 23.3432 35.5463C23.9784 35.5651 24.405 36.003 24.4376 36.6385C24.4575 37.0248 24.4413 37.4132 24.4406 37.8006Z" fill="black"/>
<path fill-rule="evenodd" clip-rule="evenodd" d="M32.7745 22.1896C32.7749 21.8391 32.7636 21.4881 32.7773 21.1381C32.8032 20.4653 33.222 20.0176 33.881 19.9974C34.6184 19.9747 35.3574 19.9759 36.0946 19.9966C36.7584 20.0151 37.1918 20.4559 37.2096 21.125C37.2287 21.844 37.2281 22.5643 37.2099 23.2833C37.1924 23.9787 36.7529 24.4112 36.0525 24.4275C35.3518 24.4438 34.6501 24.4432 33.9493 24.4279C33.2213 24.4121 32.7971 23.9749 32.7758 23.2409C32.7657 22.891 32.774 22.5402 32.7745 22.1896Z" fill="#5A5707"/>
<path fill-rule="evenodd" clip-rule="evenodd" d="M40.5495 22.1656C40.5492 21.815 40.5361 21.464 40.5521 21.1142C40.5822 20.449 41.0105 20.0137 41.6788 19.9964C42.4162 19.9773 43.155 19.9749 43.8923 19.9983C44.5264 20.0185 44.9615 20.4566 44.9815 21.0941C45.0046 21.8315 45.0034 22.5703 44.9825 23.3077C44.9636 23.9734 44.5243 24.4088 43.8569 24.4264C43.1195 24.4459 42.3805 24.4483 41.6434 24.4242C41.008 24.4033 40.5844 23.9646 40.5532 23.3277C40.5342 22.9413 40.5496 22.5531 40.5495 22.1656Z" fill="#5A5707"/>
<path fill-rule="evenodd" clip-rule="evenodd" d="M35.0088 27.7663C35.3777 27.7666 35.7475 27.7509 36.1156 27.77C36.7507 27.803 37.1881 28.2286 37.2074 28.865C37.2302 29.6207 37.232 30.3784 37.2049 31.1337C37.1831 31.7406 36.7484 32.1745 36.1417 32.1961C35.3861 32.2228 34.6285 32.2214 33.8729 32.1982C33.2369 32.1786 32.8011 31.7407 32.7813 31.1048C32.7583 30.3674 32.7599 29.6286 32.7795 28.8912C32.7973 28.2252 33.2353 27.7977 33.9019 27.7687C34.2702 27.7527 34.6399 27.7658 35.0088 27.7663Z" fill="black"/>
<path fill-rule="evenodd" clip-rule="evenodd" d="M44.9851 29.9732C44.9851 30.3605 45.0045 30.7491 44.9806 31.135C44.9433 31.7417 44.521 32.1749 43.9141 32.1964C43.1586 32.2231 42.401 32.2217 41.6454 32.1983C41.0095 32.1786 40.5739 31.7401 40.5553 31.1036C40.5333 30.3479 40.5313 29.5902 40.5578 28.8349C40.5791 28.2294 41.0148 27.7953 41.622 27.7744C42.3776 27.7484 43.1352 27.7497 43.8907 27.7725C44.5251 27.7916 44.95 28.2297 44.9835 28.8665C45.0029 29.2343 44.987 29.6041 44.987 29.9733C44.9863 29.9732 44.9857 29.9732 44.9851 29.9732Z" fill="black"/>
<path fill-rule="evenodd" clip-rule="evenodd" d="M37.2133 37.769C37.2129 38.138 37.2286 38.5078 37.2095 38.8758C37.1765 39.5132 36.7533 39.9516 36.1188 39.9723C35.3815 39.9963 34.6427 39.9939 33.9052 39.9744C33.2373 39.9568 32.7983 39.5209 32.7801 38.8558C32.7597 38.1185 32.7585 37.3795 32.781 36.6424C32.8004 36.0052 33.235 35.5668 33.8701 35.5466C34.6073 35.523 35.3461 35.5255 36.0835 35.5444C36.7514 35.5618 37.1805 35.9967 37.2108 36.6624C37.2274 37.0304 37.2136 37.4001 37.2133 37.769Z" fill="black"/>
<path fill-rule="evenodd" clip-rule="evenodd" d="M42.7173 39.979C42.3667 39.9786 42.0156 39.9923 41.6657 39.9757C41.0243 39.9449 40.5779 39.5279 40.5567 38.8982C40.5313 38.1426 40.5321 37.3851 40.5558 36.6295C40.5758 35.9964 41.0173 35.5644 41.6563 35.5458C42.3937 35.5242 43.1325 35.5243 43.8699 35.5452C44.5329 35.564 44.9654 36.005 44.9834 36.6753C45.0027 37.3942 45.0022 38.1145 44.9836 38.8335C44.9657 39.5291 44.5258 39.9529 43.824 39.9774C43.4555 39.9901 43.0862 39.9795 42.7173 39.979Z" fill="black"/>
</svg>
