<svg width="18" height="23" viewBox="0 0 18 23" fill="none" xmlns="http://www.w3.org/2000/svg">
<path fill-rule="evenodd" clip-rule="evenodd" d="M9.4844 22.2442C9.38302 22.2442 9.28164 22.2442 9.18026 22.2442C9.0149 22.1098 8.81328 22.0027 8.68969 21.8371C6.65042 19.1067 4.62027 16.3694 2.58963 13.6324C1.19357 11.7508 0.615959 9.65138 0.926786 7.3205C1.14068 5.71647 1.77417 4.28973 2.81135 3.05397C4.03027 1.60154 5.5698 0.647447 7.42325 0.222966C7.85832 0.12332 8.30469 0.0730368 8.74584 0C9.12243 0 9.4989 0 9.87544 0C9.93137 0.0122722 9.9867 0.0307895 10.0433 0.0358936C11.2105 0.140426 12.3226 0.45071 13.3395 1.02898C15.8857 2.47689 17.3824 4.6618 17.7251 7.57426C17.9797 9.73777 17.4268 11.7259 16.1339 13.4835C14.0939 16.2568 12.0349 19.0163 9.97693 21.7763C9.84345 21.9552 9.64997 22.0893 9.4844 22.2442ZM13.8762 8.48417C13.8865 5.97546 11.8517 3.92462 9.33418 3.90589C6.81982 3.88721 4.75519 5.93549 4.74503 8.45876C4.73488 10.9674 6.76953 13.0183 9.2871 13.037C11.8015 13.0557 13.866 11.0074 13.8762 8.48417Z" fill="#272243"/>
</svg>
